<?xml version="1.0" standalone="no"?>
<!DOCTYPE svg PUBLIC "-//W3C//DTD SVG 20010904//EN"
 "http://www.w3.org/TR/2001/REC-SVG-20010904/DTD/svg10.dtd">
<svg version="1.0" xmlns="http://www.w3.org/2000/svg"
 width="1280.000000pt" height="999.000000pt" viewBox="0 0 1280.000000 999.000000"
 preserveAspectRatio="xMidYMid meet">
<rect x="0" y="0" width="1280" height="999" fill="#000000"/>

<g transform="translate(0.000000,999.000000) scale(0.100000,-0.100000)"
fill="#ffffff" stroke="none">
<path d="M3270 6870 l0 -770 208 -215 207 -215 3 844 2 843 88 5 c48 3 90 3
95 1 4 -2 7 -506 7 -1119 0 -613 4 -1114 8 -1114 8 0 563 582 643 674 l34 39
5 470 5 469 55 -64 c30 -36 177 -206 325 -378 149 -172 293 -341 321 -374 28
-34 115 -135 193 -226 78 -91 194 -241 258 -335 282 -411 656 -951 667 -963
13 -13 47 36 658 929 73 107 115 176 110 185 -9 17 -384 444 -411 468 -24 21
-13 32 -211 -199 -56 -66 -111 -128 -120 -138 -17 -18 -23 -12 -162 150 -79
92 -230 267 -334 388 -104 121 -302 351 -439 510 -137 160 -331 385 -430 500
-99 116 -218 254 -264 308 l-84 97 -719 0 -718 0 0 -770z"/>
<path d="M8006 7523 c-178 -202 -626 -724 -626 -731 0 -6 223 -262 398 -456
l35 -40 44 50 c25 27 119 135 210 241 92 106 170 190 174 188 4 -3 8 -241 8
-530 l2 -524 -88 -93 c-209 -221 -428 -461 -431 -472 -3 -14 70 -102 322 -385
l110 -124 106 110 c234 243 645 686 652 701 4 10 7 441 7 960 l1 942 95 0 95
0 0 -846 c0 -465 3 -844 8 -842 4 2 98 98 209 213 l202 210 1 773 0 772 -715
0 -714 0 -105 -117z"/>
<path d="M6229 7443 c-92 -104 -259 -291 -373 -418 -113 -126 -206 -232 -206
-235 0 -4 70 -89 156 -191 86 -101 179 -211 206 -244 28 -33 56 -61 62 -62 6
-1 81 77 166 172 85 96 160 175 165 175 6 0 55 -51 110 -113 55 -61 181 -202
280 -312 99 -110 263 -294 365 -408 102 -114 229 -256 282 -315 53 -59 116
-130 140 -159 24 -29 46 -52 50 -53 10 0 442 479 446 495 2 7 -32 50 -75 96
-43 46 -123 134 -178 194 -103 115 -303 334 -515 565 -140 152 -340 375 -670
745 -123 138 -228 251 -234 253 -6 1 -86 -82 -177 -185z"/>
<path d="M4609 5662 c-202 -213 -514 -544 -695 -737 -181 -192 -402 -427 -491
-522 l-163 -172 0 -1001 0 -1000 950 0 950 0 0 554 0 553 -138 129 c-76 71
-209 194 -295 273 l-157 144 0 218 c0 128 -4 219 -9 219 -5 0 -19 -12 -31 -27
-11 -14 -110 -123 -219 -242 -109 -119 -235 -256 -280 -306 l-81 -89 2 -336 3
-335 217 -3 218 -2 2 232 3 233 60 0 60 0 3 -296 2 -296 -126 -6 c-127 -7
-572 1 -586 9 -5 3 -8 210 -8 460 l0 454 119 133 c66 72 177 195 248 273 123
136 454 501 678 749 60 66 199 219 310 340 270 293 260 281 244 303 -85 109
-408 482 -417 481 -4 0 -172 -175 -373 -387z"/>
<path d="M5130 5018 c-196 -215 -340 -380 -340 -392 0 -7 28 -53 63 -102 58
-82 178 -254 289 -414 937 -1351 1258 -1810 1263 -1810 2 0 34 44 71 98 37 53
106 153 154 222 48 69 145 208 215 310 229 330 556 801 673 970 64 91 150 215
192 275 42 61 122 176 178 256 56 81 102 152 102 159 0 6 -31 46 -69 88 -38
42 -130 145 -205 229 -74 83 -140 154 -145 157 -5 3 -186 -250 -402 -562 -724
-1045 -757 -1092 -767 -1092 -4 0 -43 53 -88 118 -76 110 -380 548 -741 1067
-269 388 -348 498 -358 502 -6 2 -44 -34 -85 -79z"/>
<path d="M8605 4888 c-82 -89 -189 -203 -237 -254 -49 -51 -88 -97 -88 -103 0
-11 132 -156 465 -511 121 -129 230 -248 243 -264 22 -29 22 -29 22 -467 l0
-439 -162 -1 c-228 -2 -542 2 -550 8 -10 5 -10 431 -1 526 l6 68 56 -3 56 -3
3 -232 2 -233 220 0 220 0 0 339 0 339 -127 139 c-283 308 -476 513 -482 513
-4 0 -5 -90 -3 -200 4 -173 2 -203 -12 -225 -9 -14 -145 -142 -301 -286 l-285
-261 0 -554 0 -554 133 0 c72 0 431 0 797 -1 366 0 734 0 818 0 l152 1 0 1000
0 1000 -202 213 c-112 117 -286 302 -387 410 -102 108 -190 197 -195 196 -6 0
-78 -73 -161 -161z"/>
</g>
</svg>
